<?xml version="1.0" encoding="UTF-8"?>
<svg width="890px" height="1493px" viewBox="0 0 890 1493" version="1.1" xmlns="http://www.w3.org/2000/svg" xmlns:xlink="http://www.w3.org/1999/xlink">
    <title>Background</title>
    <defs>
        <filter id="filter-1">
            <feColorMatrix in="SourceGraphic" type="matrix" values="0 0 0 0 1.000000 0 0 0 0 1.000000 0 0 0 0 1.000000 0 0 0 1.000000 0"></feColorMatrix>
        </filter>
    </defs>
    <g id="Desktop" stroke="none" stroke-width="1" fill="none" fill-rule="evenodd">
        <g id="Background" transform="translate(-592.000000, -42.000000)" filter="url(#filter-1)">
            <g transform="translate(592.000000, 42.000000)">
                <polygon id="Path-2" fill="#FFFFFF" points="404.34365 349 144 1435 890 1435 890 349 861 111.483163"></polygon>
                <path d="M62.6507277,1493 C90.0977131,1493 116.351351,1479.88433 141.411642,1453.653 C143.798337,1456.56759 152.450104,1457.29624 167.366944,1455.83895 C182.283784,1454.38165 194.515593,1453.653 204.06237,1453.653 C211.222453,1453.653 214.802495,1454.38165 214.802495,1455.83895 L392.014553,1114.83163 C446.908524,1057.99707 486.288981,1006.9917 510.155925,961.81552 C534.022869,916.639336 549.536383,875.470717 556.696466,838.309663 C563.856549,801.148609 566.54158,766.537823 564.751559,734.477306 C562.961538,702.416789 563.856549,670.356271 567.43659,638.295754 L613.977131,487.465593 L612.18711,334.449488 C613.380457,337.36408 615.767152,344.286237 619.347193,355.215959 C622.927235,366.145681 627.10395,377.804051 631.877339,390.191069 C636.650728,402.578087 641.424116,413.872133 646.197505,424.073206 C650.970894,434.27428 655.147609,439.374817 658.727651,439.374817 L662.307692,437.188873 C662.307692,438.646169 663.50104,439.374817 665.887734,439.374817 C669.467775,439.374817 676.627859,431.724012 687.367983,416.422401 C698.108108,401.120791 710.93659,381.811615 725.85343,358.494876 C740.77027,335.178136 755.985447,309.675451 771.49896,281.986823 C787.012474,254.298194 801.630977,228.431186 815.35447,204.385798 C829.077963,180.34041 840.116424,159.573939 848.469854,142.086384 C856.823285,124.598829 861,114.397755 861,111.483163 C861,88.1664226 852.049896,69.5858956 834.149688,55.7415813 C816.24948,41.897267 794.769231,31.3318692 769.70894,24.045388 C744.648649,16.7589068 718.39501,11.6583699 690.948025,8.74377745 C663.50104,5.82918497 640.827443,2.91459248 622.927235,0 L567.43659,76.5080527 L542.376299,76.5080527 C542.376299,79.4226452 536.111227,89.6237189 523.581081,107.111274 C511.050936,124.598829 495.239085,145.3653 476.14553,169.410688 C457.051975,193.456076 436.765073,219.323084 415.284823,247.011713 C393.804574,274.700342 373.517672,300.203026 354.424116,323.519766 C335.330561,346.836506 319.518711,365.781357 306.988565,380.354319 C294.45842,394.927282 288.193347,402.213763 288.193347,402.213763 C287,402.213763 284.911642,408.407272 281.928274,420.79429 C278.944906,433.181308 275.663202,447.025622 272.08316,462.327233 C268.503119,477.628843 265.519751,491.837482 263.133056,504.953148 C260.746362,518.068814 259.553015,524.626647 259.553015,524.626647 L191.532225,863.448023 C191.532225,864.90532 189.742204,867.455588 186.162162,871.098829 C182.582121,874.742069 180.7921,876.56369 180.7921,876.56369 L166.471933,876.56369 L125.301455,865.633968 C125.301455,865.633968 124.108108,865.269644 121.721414,864.540996 C119.334719,863.812347 117.544699,863.448023 116.351351,863.448023 C113.964657,863.448023 112.174636,863.812347 110.981289,864.540996 C109.787942,865.269644 109.191268,865.633968 109.191268,865.633968 C103.224532,870.005857 94.8711019,879.113958 84.1309771,892.958272 C73.3908524,906.802587 66.8274428,916.639336 64.4407484,922.468521 C63.2474012,922.468521 62.6507277,923.197169 62.6507277,924.654466 C62.6507277,931.940947 64.4407484,939.956076 68.02079,948.699854 C71.6008316,957.443631 73.3908524,963.272816 73.3908524,966.187408 C57.8773389,966.187408 47.1372141,973.838214 41.1704782,989.139824 C35.2037422,1004.44143 30.7286902,1022.65764 27.7453222,1043.78843 C24.7619543,1064.91923 22.0769231,1087.143 19.6902287,1110.45974 C17.3035343,1133.77648 11.9334719,1153.44998 3.58004158,1169.48023 C2.38669439,1170.93753 1.79002079,1173.12347 1.79002079,1176.03807 C1.79002079,1180.40996 1.19334719,1183.32455 0,1184.78184 C5.96673597,1197.89751 10.1434511,1221.21425 12.5301455,1254.73206 C14.9168399,1288.24988 17.9002079,1322.86066 21.4802495,1358.56442 C25.0602911,1394.26818 29.535343,1425.60005 34.9054054,1452.56003 C40.2754678,1479.52001 49.5239085,1493 62.6507277,1493 Z" id="/" fill="#FFFFFF" fill-rule="nonzero"></path>
            </g>
        </g>
    </g>
</svg>